<?xml version="1.0" encoding="UTF-8"?>
<svg version="1.1" xmlns="http://www.w3.org/2000/svg" width="512" height="512">
<path d="M0 0 C0.70832307 -0.00581376 1.41664613 -0.01162753 2.14643353 -0.01761746 C4.52624811 -0.03224638 6.90503594 -0.01831958 9.28484344 -0.00457001 C11.00564238 -0.0091778 12.72643739 -0.01552989 14.44722414 -0.02347898 C19.18083735 -0.04021222 23.91412893 -0.03190783 28.64774346 -0.01953411 C33.75075247 -0.01050226 38.85370527 -0.02444407 43.95670319 -0.0354538 C53.9554366 -0.05326356 63.95405007 -0.04938809 73.95278823 -0.03780323 C82.0771603 -0.02877885 90.20149869 -0.0275406 98.32587433 -0.0318985 C99.4810789 -0.03251143 100.63628347 -0.03312436 101.82649425 -0.03375587 C104.17308693 -0.03503474 106.51967961 -0.03633159 108.86627227 -0.03764623 C130.88319101 -0.04905923 152.90004318 -0.03592703 174.916951 -0.01444477 C193.81870858 0.00342685 212.72036791 0.00032295 231.62212372 -0.01811981 C253.55891587 -0.03951381 275.49564965 -0.04796053 297.43245077 -0.03567076 C299.77053165 -0.03439653 302.10861253 -0.03313904 304.44669342 -0.0318985 C306.17237664 -0.03097285 306.17237664 -0.03097285 307.93292215 -0.03002849 C316.04988235 -0.02657118 324.1668056 -0.03241215 332.28376007 -0.04181671 C342.17226923 -0.05302173 352.06065135 -0.05002818 361.94914591 -0.02869374 C366.99683542 -0.01816317 372.04431291 -0.01409563 377.09200096 -0.02729034 C381.70963389 -0.03917856 386.32685757 -0.03271089 390.94445318 -0.01138014 C392.61799795 -0.00689888 394.29157704 -0.00921435 395.96509987 -0.01888329 C398.23475194 -0.0309941 400.50299028 -0.0186282 402.77256775 0 C404.66577483 0.00097411 404.66577483 0.00097411 406.59722853 0.00196791 C410.5185166 0.59974463 412.18689395 1.62510948 414.88628387 4.50336456 C415.50727636 6.53263354 415.50727636 6.53263354 415.50152302 8.72810745 C415.51147826 9.56860319 415.5214335 10.40909893 415.53169042 11.27506423 C415.51712621 12.19334951 415.502562 13.11163478 415.48755646 14.05774689 C415.49182858 15.0371336 415.49610071 16.01652031 415.50050229 17.02558541 C415.5087564 20.31649119 415.48120625 23.60613035 415.45391083 26.89691925 C415.45250089 29.25215881 415.45329128 31.60740057 415.45612335 33.96263885 C415.457561 40.3652819 415.42811414 46.7674589 415.39325356 53.1699934 C415.362828 59.1804878 415.3601406 65.19103792 415.3549942 71.20159581 C415.34405074 83.10679823 415.31077526 95.01182937 415.26348114 106.91693878 C415.21758681 118.48170871 415.18219433 130.04643211 415.16094208 141.61127472 C415.15962846 142.32411577 415.15831484 143.03695682 415.15696142 143.77139911 C415.15043624 147.34750931 415.1441177 150.92361984 415.1379019 154.49973059 C415.08606731 184.16772215 414.99762905 213.83553522 414.88628387 243.50336456 C416.30653451 243.208567 417.72557518 242.90793713 419.14409637 242.60492706 C420.32963104 242.35476837 420.32963104 242.35476837 421.53911591 242.09955597 C423.74409075 241.53948227 425.68981416 240.80758717 427.76128387 239.87836456 C434.23790553 237.36754702 441.13679623 237.49106951 447.57378387 240.06586456 C458.15386766 245.58181572 464.3151965 254.20009669 467.88628387 265.50336456 C469.29026729 272.62404598 469.10521675 280.48600195 465.22222137 286.79242706 C458.91282187 294.87288607 458.91282187 294.87288607 454.07378387 296.37836456 C451.74608943 297.28830957 451.74608943 297.28830957 451.03081512 299.40180206 C449.995628 303.17866661 449.70595516 305.80979256 450.69878387 309.62836456 C453.28872493 313.03228709 456.22997088 315.12251628 459.65972137 317.63617706 C464.54532192 321.73322454 467.52424735 327.25737797 468.23003387 333.58539581 C468.73225977 345.57603914 465.37629042 353.87801204 458.07378387 363.56586456 C452.16402269 369.66127269 445.71652727 371.81357769 437.32378387 372.06586456 C431.69181332 371.8957144 427.74795332 370.94700637 422.80815887 368.34711456 C419.52075127 366.90386244 417.21304347 367.41577008 413.88628387 368.50336456 C410.8276756 370.14030965 410.8276756 370.14030965 408.88628387 373.50336456 C408.21335086 376.75156046 407.80202583 379.98973286 407.39019012 383.28070831 C406.22816426 390.71226907 402.81970196 395.0580515 397.27690887 399.96039581 C390.8106288 404.13389357 384.60466107 405.03257725 377.01128387 404.94086456 C375.6873764 404.92841705 375.6873764 404.92841705 374.33672333 404.91571808 C365.78275029 404.69358829 359.479616 403.12250927 353.01128387 397.31586456 C347.14918232 390.80548354 345.46863857 383.75963129 344.57378387 375.20258331 C343.72985265 371.88919424 342.53420126 370.61879399 339.88628387 368.50336456 C336.59843591 367.47188285 334.20622168 366.92773246 330.96050262 368.34320831 C330.27601044 368.70543488 329.59151825 369.06766144 328.88628387 369.44086456 C321.79954675 372.9054916 313.44902535 372.81825819 305.94487762 370.65570831 C295.38941223 365.90172008 290.27168259 356.80463671 285.88628387 346.50336456 C284.39214278 342.3197695 284.88628387 339.38372354 284.88628387 334.50336456 C278.28628387 334.83336456 271.68628387 335.16336456 264.88628387 335.50336456 C266.28878387 338.16398956 267.69128387 340.82461456 269.13628387 343.56586456 C270.04674509 345.29877729 270.95693754 347.03183127 271.86675262 348.76508331 C273.9617712 352.75318261 276.07107957 356.73338514 278.18706512 360.71039581 C279.27446879 362.76629862 280.3617113 364.82228667 281.44878387 366.87836456 C281.97311005 367.85813263 282.49743622 368.8379007 283.03765106 369.8473587 C283.52523895 370.77282501 284.01282684 371.69829132 284.51519012 372.65180206 C284.94904022 373.46826202 285.38289032 374.28472198 285.82988739 375.12592316 C286.94429388 377.63391723 287.57972314 379.77622243 287.88628387 382.50336456 C285.60917544 388.14191878 285.60917544 388.14191878 282.88628387 389.50336456 C280.80725741 389.60827285 278.72481338 389.64730101 276.64316559 389.65726471 C275.99569974 389.66164696 275.3482339 389.66602922 274.68114787 389.67054427 C272.50172091 389.68394734 270.3223344 389.69011446 268.14287567 389.69623566 C266.58420885 389.7041354 265.02554385 389.71240427 263.4668808 389.72101593 C258.33977255 389.74724942 253.21265606 389.76254422 248.08550262 389.77680206 C246.32176266 389.78216107 244.55802276 389.78753858 242.79428291 389.79293442 C235.4588641 389.8145645 228.12344751 389.8333021 220.78800488 389.84455681 C210.26854764 389.86080189 199.74945944 389.89399156 189.23014134 389.95095766 C181.83730264 389.98963054 174.44456276 390.0091863 167.05162555 390.01447737 C162.63423456 390.01813431 158.21723704 390.03019156 153.79995537 390.06258011 C149.64414286 390.09261459 145.48896286 390.0989894 141.33306503 390.08719635 C139.80804781 390.08697523 138.28300164 390.09531234 136.75808525 390.11285019 C134.67474476 390.13550559 132.59370502 390.12726805 130.51035309 390.11136627 C128.76238198 390.11633149 128.76238198 390.11633149 126.97909832 390.12139702 C122.93847092 389.31396453 121.44072858 387.66458725 118.88628387 384.50336456 C117.51543445 378.56012499 121.07326466 373.43479587 123.76128387 368.31586456 C124.25290009 367.35712433 124.7445163 366.39838409 125.25102997 365.41059113 C126.78237347 362.43414938 128.33179402 359.46777476 129.88628387 356.50336456 C130.37677216 355.56347687 130.86726044 354.62358917 131.372612 353.65522003 C133.90646824 348.80210966 136.45630615 343.95788438 139.02935028 339.12543488 C139.66312405 337.92577877 140.27951473 336.71690285 140.88628387 335.50336456 C139.73995546 335.50116472 139.73995546 335.50116472 138.5704689 335.49892044 C119.98419009 335.46188545 101.39809974 335.40291484 82.81196976 335.31946182 C73.82387997 335.27963489 64.8358782 335.24726102 55.84770966 335.23236847 C48.01455507 335.21937083 40.18159386 335.19245471 32.34854817 335.1487515 C28.20010715 335.12609396 24.051905 335.11045644 19.90339661 335.11148071 C15.99955239 335.11222481 12.09623708 335.09437571 8.19252968 335.06219673 C6.75905836 335.05367022 5.32552791 335.05196644 3.89204216 335.05756187 C1.9359768 335.06418075 -0.02012468 335.0439576 -1.97608185 335.0223465 C-3.07117191 335.01865932 -4.16626198 335.01497215 -5.29453659 335.01117325 C-8.86745247 334.36759674 -9.86387716 333.31230971 -12.11371613 330.50336456 C-12.61626345 327.92085171 -12.61626345 327.92085171 -12.619874 324.93108368 C-12.63644553 323.21945714 -12.63644553 323.21945714 -12.65335184 321.4732523 C-12.64511108 320.219183 -12.63687031 318.9651137 -12.62837982 317.6730423 C-12.63370374 316.32774817 -12.64076854 314.98245999 -12.64942688 313.63718319 C-12.66810194 309.93690266 -12.66173278 306.23702102 -12.65127385 302.53672361 C-12.64429557 298.54755098 -12.66026925 294.55846143 -12.67327118 290.56931305 C-12.69493912 282.75319764 -12.69477723 274.93722767 -12.68664563 267.12109208 C-12.68035196 260.77013889 -12.68147684 254.41922819 -12.68791771 248.06827545 C-12.68881936 247.16520454 -12.68972102 246.26213363 -12.69065 245.33169693 C-12.69250115 243.49726398 -12.69436371 241.66283104 -12.69623756 239.82839811 C-12.7128256 222.61716178 -12.70408812 205.40600736 -12.68725198 188.19477594 C-12.67255233 172.43873579 -12.68718535 156.68288629 -12.71602214 140.9268707 C-12.7453939 124.75848648 -12.75639504 108.59019032 -12.74683994 92.42178059 C-12.74581736 90.59400496 -12.74482275 88.76622933 -12.74385643 86.93845367 C-12.74338004 86.03909653 -12.74290365 85.13973938 -12.74241282 84.21312898 C-12.74024585 77.868017 -12.75006774 71.52298813 -12.76462746 65.17789459 C-12.78211736 57.44783388 -12.78208166 49.71801635 -12.7592758 41.98796535 C-12.74810327 38.04207379 -12.74503851 34.0966112 -12.76357651 30.15073776 C-12.7803182 26.54084381 -12.77411773 22.93175501 -12.74935972 19.32191384 C-12.74212544 17.39242516 -12.7595615 15.46289315 -12.77777106 13.53347683 C-12.76534902 12.39239247 -12.75292698 11.25130812 -12.74012852 10.07564545 C-12.73985883 9.089022 -12.73958914 8.10239855 -12.73931128 7.08587742 C-12.11371613 4.50336456 -12.11371613 4.50336456 -10.01917261 2.18655729 C-6.42052815 0.10178603 -4.1498009 0.0021352 0 0 Z M3.88628387 17.50336456 C3.88628387 100.00336456 3.88628387 182.50336456 3.88628387 267.50336456 C96.94628387 267.50336456 190.00628387 267.50336456 285.88628387 267.50336456 C287.20628387 264.20336456 288.52628387 260.90336456 289.88628387 257.50336456 C293.92060886 249.35442952 298.48160261 244.19185115 306.88628387 240.50336456 C310.16663501 239.41431439 313.19245023 239.39986654 316.63628387 239.44086456 C317.62112762 239.449888 318.60597137 239.45891144 319.62065887 239.46820831 C320.36831512 239.47980988 321.11597137 239.49141144 321.88628387 239.50336456 C321.88628387 237.85336456 321.88628387 236.20336456 321.88628387 234.50336456 C320.75086151 234.48878204 319.61543915 234.47419952 318.44561005 234.45917511 C314.23532779 234.40122781 310.02558238 234.32399515 305.81572723 234.24091339 C303.99322468 234.20764716 302.17061868 234.1796205 300.3479538 234.15692902 C297.72877138 234.12341375 295.1105384 234.07110105 292.49175262 234.01508331 C291.26817299 234.00549843 291.26817299 234.00549843 290.01987457 233.99571991 C284.29700253 233.84677815 284.29700253 233.84677815 282.20948029 232.10134125 C279.42611408 228.73997005 279.71555162 225.56313948 279.68096161 221.39154816 C279.67106201 220.65973831 279.66116241 219.92792847 279.65096283 219.17394257 C279.61932188 216.74992888 279.59458021 214.32589558 279.56987762 211.90180206 C279.54931033 210.22313674 279.52831392 208.54447663 279.5069046 206.86582184 C279.4516607 202.44355225 279.40226167 198.02123576 279.35405731 193.59888458 C279.29503633 188.29496875 279.22879562 182.99113881 279.16375732 177.68729401 C279.06571862 169.62603657 278.97688261 161.56472452 278.88628387 153.50336456 C265.35628387 153.50336456 251.82628387 153.50336456 237.88628387 153.50336456 C237.88628387 168.02336456 237.88628387 182.54336456 237.88628387 197.50336456 C242.83628387 197.83336456 247.78628387 198.16336456 252.88628387 198.50336456 C256.88628387 201.50336456 256.88628387 201.50336456 257.6272049 203.42647552 C257.89211134 205.55008004 258.0202501 207.59323852 258.03154755 209.73358917 C258.0379274 210.55802017 258.04430725 211.38245117 258.05088043 212.23186493 C258.05254967 213.5554174 258.05254967 213.5554174 258.05425262 214.90570831 C258.05758102 215.82042404 258.06090942 216.73513977 258.06433868 217.67757416 C258.06939569 219.6099777 258.07174739 221.54238996 258.07158661 223.47480011 C258.07377325 226.4265255 258.09194238 229.37787713 258.11089325 232.32953644 C258.11382741 234.20909245 258.11581205 236.08865024 258.11675262 237.96820831 C258.12393814 238.8485524 258.13112366 239.72889648 258.13852692 240.63591766 C258.12235811 244.98516755 258.08392867 248.61195353 255.88628387 252.50336456 C253.4871941 253.70290945 251.9792358 253.63646171 249.30059052 253.64862823 C247.87384758 253.65819801 247.87384758 253.65819801 246.41828156 253.66796112 C245.38807388 253.66907394 244.35786621 253.67018677 243.29644012 253.67133331 C241.71324226 253.67632591 241.71324226 253.67632591 240.09806061 253.68141937 C237.86284064 253.68648855 235.6276131 253.6888277 233.39238739 253.6886673 C229.96639837 253.69085332 226.54073148 253.70900803 223.1147995 253.72797394 C220.94618081 253.7309079 218.77756059 253.73289268 216.60894012 253.73383331 C215.58075668 253.74101883 214.55257324 253.74820435 213.49323273 253.7556076 C212.53891861 253.75253098 211.58460449 253.74945435 210.60137177 253.74628448 C209.34134087 253.74842201 209.34134087 253.74842201 208.0558548 253.75060272 C205.88628387 253.50336456 205.88628387 253.50336456 202.88628387 251.50336456 C201.08196806 246.09041712 201.29280156 240.19461214 200.88628387 234.50336456 C160.95628387 234.50336456 121.02628387 234.50336456 79.88628387 234.50336456 C79.55628387 239.45336456 79.22628387 244.40336456 78.88628387 249.50336456 C75.88628387 253.50336456 75.88628387 253.50336456 73.68547821 254.00457001 C72.83070892 254.00473618 71.97593964 254.00490234 71.09526825 254.00507355 C70.12416107 254.0144545 69.15305389 254.02383545 68.15251923 254.03350067 C67.10559906 254.02226669 66.05867889 254.01103271 64.98003387 253.99945831 C63.90378754 254.00091354 62.8275412 254.00236877 61.71868134 254.0038681 C59.44232731 254.00220748 57.16596225 253.99062809 54.88970184 253.9699173 C51.39979752 253.94097663 47.91141263 253.94930277 44.42144012 253.96234894 C42.2117973 253.95611136 40.00215929 253.94772028 37.79253387 253.93695831 C36.74561371 253.93989395 35.69869354 253.94282959 34.62004852 253.94585419 C33.64894135 253.93317001 32.67783417 253.92048584 31.6772995 253.9074173 C30.82253021 253.90201431 29.96776093 253.89661133 29.08708954 253.89104462 C26.88628387 253.50336456 26.88628387 253.50336456 25.11011505 252.27181244 C23.52458627 249.98070803 23.5118819 248.58012107 23.51396942 245.80414581 C23.50774063 244.85305939 23.50151184 243.90197296 23.4950943 242.92206573 C23.50430405 241.89701935 23.51351379 240.87197296 23.52300262 239.81586456 C23.52250412 238.76181427 23.52200562 237.70776398 23.521492 236.62177277 C23.52383324 234.39250555 23.53356461 232.16323573 23.55010223 229.93402863 C23.57369115 226.51679663 23.57066381 223.10034475 23.56401825 219.68305206 C23.56959502 217.5189849 23.57670489 215.35492103 23.58550262 213.19086456 C23.58459122 212.16581818 23.58367981 211.14077179 23.58274078 210.08466339 C23.5922728 209.13357697 23.60180481 208.18249054 23.61162567 207.20258331 C23.61623306 206.36557892 23.62084045 205.52857452 23.62558746 204.66620636 C23.88628387 202.50336456 23.88628387 202.50336456 25.88628387 199.50336456 C31.29923132 197.69904875 37.1950363 197.90988225 42.88628387 197.50336456 C42.88628387 162.85336456 42.88628387 128.20336456 42.88628387 92.50336456 C37.93628387 92.17336456 32.98628387 91.84336456 27.88628387 91.50336456 C23.88628387 88.50336456 23.88628387 88.50336456 23.40526581 86.20644379 C23.41414825 85.3070961 23.4230307 84.40774841 23.43218231 83.48114777 C23.43248444 82.46031601 23.43278656 81.43948425 23.43309784 80.3877182 C23.45374298 79.28763931 23.47438812 78.18756042 23.49565887 77.05414581 C23.50131866 75.92639236 23.50697845 74.79863892 23.51280975 73.63671112 C23.53522756 70.02933322 23.58543604 66.42294303 23.63628387 62.81586456 C23.65634179 60.37251952 23.67459379 57.92915893 23.69097137 55.48578644 C23.73511009 49.49130794 23.80207657 43.4974068 23.88628387 37.50336456 C26.74636546 36.55000404 28.59715998 36.36144901 31.56963348 36.32636261 C32.99142159 36.30710976 32.99142159 36.30710976 34.44193268 36.28746796 C35.97479668 36.27638756 35.97479668 36.27638756 37.53862762 36.26508331 C38.59030624 36.25701157 39.64198486 36.24893982 40.72553253 36.24062347 C42.95056767 36.22679172 45.17562395 36.2160655 47.40068817 36.20819855 C50.80709987 36.19094905 54.21255019 36.14704983 57.61870575 36.10297394 C59.7795059 36.09285012 61.9403143 36.08433304 64.10112762 36.07758331 C65.63095528 36.05132118 65.63095528 36.05132118 67.19168854 36.0245285 C68.14269943 36.02745407 69.09371033 36.03037964 70.07353973 36.03339386 C70.90832352 36.02752762 71.7431073 36.02166138 72.60318756 36.01561737 C74.88628387 36.50336456 74.88628387 36.50336456 78.88628387 40.50336456 C79.38128387 47.92836456 79.38128387 47.92836456 79.88628387 55.50336456 C119.81628387 55.50336456 159.74628387 55.50336456 200.88628387 55.50336456 C201.21628387 50.88336456 201.54628387 46.26336456 201.88628387 41.50336456 C203.88628387 37.50336456 203.88628387 37.50336456 205.88628387 36.50336456 C207.41218908 36.39844811 208.94252004 36.35467554 210.47197723 36.34223175 C211.42313919 36.33262421 212.37430115 36.32301666 213.35428619 36.31311798 C214.38449387 36.3088681 215.41470154 36.30461823 216.47612762 36.30023956 C218.05932549 36.29168945 218.05932549 36.29168945 219.67450714 36.28296661 C221.90972132 36.27350967 224.14494949 36.26697989 226.38018036 36.26313019 C229.8062889 36.25341418 233.23180034 36.22239263 236.65776825 36.19086456 C238.82638447 36.18433575 240.99500499 36.1790848 243.16362762 36.17523956 C244.70590279 36.15671936 244.70590279 36.15671936 246.27933502 36.13782501 C247.23364914 36.14082611 248.18796326 36.14382721 249.17119598 36.14691925 C250.01121658 36.14327362 250.85123718 36.13962799 251.71671295 36.13587189 C254.40712411 36.59158706 255.25011628 37.35431306 256.88628387 39.50336456 C257.79234696 42.22155383 258.01683831 43.82476422 258.03154755 46.62006378 C258.0379274 47.44457031 258.04430725 48.26907684 258.05088043 49.11856842 C258.05254967 50.44986282 258.05254967 50.44986282 258.05425262 51.80805206 C258.05758102 52.72418274 258.06090942 53.64031342 258.06433868 54.58420563 C258.06940164 56.52258553 258.0717472 58.46097415 258.07158661 60.39936066 C258.0737703 63.35995667 258.09192497 66.32017837 258.11089325 69.28070831 C258.11382788 71.16482162 258.11581221 73.0489367 258.11675262 74.93305206 C258.12393814 75.8165332 258.13112366 76.70001434 258.13852692 77.61026764 C258.10870446 85.66350282 258.10870446 85.66350282 255.88628387 89.50336456 C252.88628387 91.50336456 252.88628387 91.50336456 237.88628387 92.50336456 C237.88628387 107.02336456 237.88628387 121.54336456 237.88628387 136.50336456 C251.41628387 136.50336456 264.94628387 136.50336456 278.88628387 136.50336456 C278.93526825 131.13570831 278.98425262 125.76805206 279.03472137 120.23773956 C279.07010534 116.83798108 279.10606395 113.43824818 279.14409637 110.03852081 C279.20441288 104.64191085 279.26259652 99.24533672 279.30815887 93.84857941 C279.34502382 89.49777337 279.39138709 85.1471629 279.44434738 80.79652405 C279.4628849 79.13637725 279.47799525 77.47618854 279.48962784 75.815979 C279.50650136 73.49119272 279.53553864 71.16685368 279.56743622 68.84223175 C279.5706765 67.81184532 279.5706765 67.81184532 279.57398224 66.76064301 C279.63635211 63.20421004 279.83800614 60.47608523 281.88628387 57.50336456 C285.26680662 55.81310319 289.10888529 56.25891497 292.83159637 56.18695831 C293.71660828 56.16617722 294.60162018 56.14539612 295.51345062 56.12398529 C298.34598129 56.05849858 301.17860612 55.99960894 304.01128387 55.94086456 C305.92926244 55.8976785 307.84723141 55.85406419 309.76519012 55.81000519 C314.47212438 55.70281809 319.17915355 55.60154817 323.88628387 55.50336456 C323.92366669 54.46695831 323.9610495 53.43055206 323.99956512 52.36273956 C324.06524175 50.99291272 324.13168852 49.62312265 324.19878387 48.25336456 C324.22134247 47.5714505 324.24390106 46.88953644 324.26714325 46.18695831 C324.49129897 41.98913307 324.92649948 39.5207696 327.88628387 36.50336456 C330.08708954 36.00215912 330.08708954 36.00215912 332.6772995 36.00165558 C333.64840668 35.99227463 334.61951385 35.98289368 335.62004852 35.97322845 C336.66696869 35.98446243 337.71388885 35.99569641 338.79253387 36.00727081 C339.86878021 36.00581558 340.94502655 36.00436035 342.05388641 36.00286102 C344.33024044 36.00452165 346.60660549 36.01610104 348.88286591 36.03681183 C352.37277023 36.0657525 355.86115512 36.05742635 359.35112762 36.04438019 C361.56077045 36.05061776 363.77040846 36.05900884 365.98003387 36.06977081 C367.02695404 36.06683517 368.07387421 36.06389954 369.15251923 36.06087494 C370.1236264 36.07355911 371.09473358 36.08624329 372.09526825 36.09931183 C372.95003754 36.10471481 373.80480682 36.1101178 374.68547821 36.11568451 C376.88628387 36.50336456 376.88628387 36.50336456 378.66046906 37.73590851 C380.24272969 40.01731031 380.27241381 41.42020596 380.29033661 44.18671417 C380.30936287 45.60850227 380.30936287 45.60850227 380.3287735 47.05901337 C380.32437004 48.59187737 380.32437004 48.59187737 380.31987762 50.15570831 C380.32511948 51.20738693 380.33036133 52.25906555 380.33576202 53.34261322 C380.34218798 55.56765612 380.34083784 57.79273296 380.3323288 60.01776886 C380.323825 63.42438991 380.35256376 66.82933141 380.38433075 70.23578644 C380.38594296 72.39659323 380.38536486 74.55740299 380.38237762 76.71820831 C380.3936116 77.73809341 380.40484558 78.75797852 380.41641998 79.80876923 C380.37764512 83.73964125 380.34006253 86.63759739 378.49980927 90.14862823 C374.30638834 92.32231275 370.22611625 92.03301613 365.57378387 91.96430206 C364.56791229 91.96338562 363.56204071 91.96246918 362.52568817 91.96152496 C360.4007215 91.95548766 358.27576339 91.93973785 356.15093231 91.91498566 C352.89833466 91.87849974 349.64687722 91.87396621 346.39409637 91.87445831 C344.32898236 91.86462615 342.26387607 91.85296872 340.19878387 91.83930206 C338.73928314 91.83596359 338.73928314 91.83596359 337.25029755 91.83255768 C336.34255585 91.81979797 335.43481415 91.80703827 334.49956512 91.79389191 C333.30520844 91.78245651 333.30520844 91.78245651 332.08672333 91.7707901 C329.61111009 91.46992193 327.99651225 90.81986162 325.88628387 89.50336456 C324.36571888 86.46223458 324.51216778 83.22138659 324.32378387 79.87836456 C324.17940887 77.44461456 324.03503387 75.01086456 323.88628387 72.50336456 C314.64628387 72.50336456 305.40628387 72.50336456 295.88628387 72.50336456 C295.88628387 120.35336456 295.88628387 168.20336456 295.88628387 217.50336456 C304.46628387 217.50336456 313.04628387 217.50336456 321.88628387 217.50336456 C321.94815887 215.29648956 322.01003387 213.08961456 322.07378387 210.81586456 C322.19118309 206.62862593 322.34911047 204.26500664 324.77983856 200.81855011 C329.23303351 197.49965293 332.87883032 197.81783987 338.29644012 197.90961456 C339.30089676 197.90957428 340.30535339 197.909534 341.34024811 197.90949249 C343.45925418 197.91484412 345.57825998 197.93241143 347.69707489 197.96137238 C350.94109938 198.00326533 354.18304983 198.00243641 357.4272995 197.99555206 C359.48786081 198.00604353 361.54841141 198.01898139 363.60894012 198.03461456 C364.57880356 198.03481598 365.54866699 198.0350174 366.54792023 198.03522491 C367.45243423 198.05113678 368.35694824 198.06704865 369.28887177 198.08344269 C370.08209335 198.09186188 370.87531494 198.10028107 371.69257355 198.10895538 C374.45367283 198.60537594 375.84006226 199.61107733 377.88628387 201.50336456 C378.19179169 202.36703644 378.4972995 203.23070831 378.81206512 204.12055206 C379.16655731 204.90688019 379.5210495 205.69320831 379.88628387 206.50336456 C382.27675387 207.43534097 382.27675387 207.43534097 385.07378387 207.62836456 C390.1987121 208.21611857 392.74866732 209.3015289 397.88628387 211.50336456 C397.88628387 147.48336456 397.88628387 83.46336456 397.88628387 17.50336456 C267.86628387 17.50336456 137.84628387 17.50336456 3.88628387 17.50336456 Z M39.88628387 52.50336456 C39.88628387 60.09336456 39.88628387 67.68336456 39.88628387 75.50336456 C47.47628387 75.50336456 55.06628387 75.50336456 62.88628387 75.50336456 C62.88628387 67.91336456 62.88628387 60.32336456 62.88628387 52.50336456 C55.29628387 52.50336456 47.70628387 52.50336456 39.88628387 52.50336456 Z M217.88628387 52.50336456 C217.88628387 60.09336456 217.88628387 67.68336456 217.88628387 75.50336456 C225.80628387 75.50336456 233.72628387 75.50336456 241.88628387 75.50336456 C241.88628387 67.91336456 241.88628387 60.32336456 241.88628387 52.50336456 C233.96628387 52.50336456 226.04628387 52.50336456 217.88628387 52.50336456 Z M340.88628387 52.50336456 C340.88628387 60.09336456 340.88628387 67.68336456 340.88628387 75.50336456 C348.47628387 75.50336456 356.06628387 75.50336456 363.88628387 75.50336456 C363.88628387 67.91336456 363.88628387 60.32336456 363.88628387 52.50336456 C356.29628387 52.50336456 348.70628387 52.50336456 340.88628387 52.50336456 Z M79.88628387 72.50336456 C79.55628387 77.12336456 79.22628387 81.74336456 78.88628387 86.50336456 C78.55628387 87.82336456 78.22628387 89.14336456 77.88628387 90.50336456 C72.02960789 91.96753356 65.90786567 92.07325158 59.88628387 92.50336456 C59.88628387 127.15336456 59.88628387 161.80336456 59.88628387 197.50336456 C66.81628387 197.99836456 66.81628387 197.99836456 73.88628387 198.50336456 C77.19878387 200.19086456 77.19878387 200.19086456 78.88628387 203.50336456 C79.38128387 210.43336456 79.38128387 210.43336456 79.88628387 217.50336456 C119.81628387 217.50336456 159.74628387 217.50336456 200.88628387 217.50336456 C201.21628387 213.21336456 201.54628387 208.92336456 201.88628387 204.50336456 C204.88628387 199.50336456 204.88628387 199.50336456 206.88628387 198.50336456 C211.83628387 198.17336456 216.78628387 197.84336456 221.88628387 197.50336456 C221.88628387 162.85336456 221.88628387 128.20336456 221.88628387 92.50336456 C216.93628387 92.17336456 211.98628387 91.84336456 206.88628387 91.50336456 C202.88628387 88.50336456 202.88628387 88.50336456 201.88628387 85.50336456 C201.55628387 81.21336456 201.22628387 76.92336456 200.88628387 72.50336456 C160.95628387 72.50336456 121.02628387 72.50336456 79.88628387 72.50336456 Z M39.88628387 214.50336456 C39.88628387 222.42336456 39.88628387 230.34336456 39.88628387 238.50336456 C47.47628387 238.50336456 55.06628387 238.50336456 62.88628387 238.50336456 C62.88628387 230.58336456 62.88628387 222.66336456 62.88628387 214.50336456 C55.29628387 214.50336456 47.70628387 214.50336456 39.88628387 214.50336456 Z M217.88628387 214.50336456 C217.88628387 222.42336456 217.88628387 230.34336456 217.88628387 238.50336456 C225.80628387 238.50336456 233.72628387 238.50336456 241.88628387 238.50336456 C241.88628387 230.58336456 241.88628387 222.66336456 241.88628387 214.50336456 C233.96628387 214.50336456 226.04628387 214.50336456 217.88628387 214.50336456 Z M338.88628387 214.50336456 C338.88628387 222.09336456 338.88628387 229.68336456 338.88628387 237.50336456 C340.86628387 237.50336456 342.84628387 237.50336456 344.88628387 237.50336456 C346.22203256 234.8318672 346.33078954 232.34295443 346.69878387 229.37836456 C347.5343518 223.63144317 348.95458402 219.48725432 351.88628387 214.50336456 C347.59628387 214.50336456 343.30628387 214.50336456 338.88628387 214.50336456 Z M363.88628387 227.50336456 C362.97701098 229.75028522 362.97701098 229.75028522 362.76128387 232.19086456 C361.52430264 239.90781171 359.79189762 247.96685167 353.88628387 253.50336456 C345.72829118 259.2649469 337.74531641 260.95565319 327.88628387 259.50336456 C325.43920477 258.61184999 323.2189806 257.54760295 320.90581512 256.35883331 C318.0164631 255.1349105 315.8014251 255.04030441 312.73784637 255.63227081 C308.90524444 257.43537257 306.98550027 260.96990095 304.88628387 264.50336456 C304.24690887 265.51398956 303.60753387 266.52461456 302.94878387 267.56586456 C301.51122414 271.54029441 301.5425492 273.47216055 302.88628387 277.50336456 C305.31897868 280.13925429 308.06042306 282.30368881 310.88628387 284.50336456 C316.65175062 289.35159797 319.37493046 295.08868011 320.23784637 302.53852081 C320.49146751 311.65735337 318.73440866 318.1329273 312.57378387 324.90961456 C310.85356446 326.53426623 309.08832367 327.8569707 307.13628387 329.19086456 C303.43436897 331.66632453 303.43436897 331.66632453 301.88628387 335.50336456 C301.74123635 342.61069324 305.73503423 347.96197358 309.88628387 353.50336456 C313.13240848 355.12642687 316.36681637 354.943298 319.88628387 354.50336456 C321.71650481 353.88701075 323.52913329 353.21668776 325.32378387 352.50336456 C332.47483156 349.74538474 337.77380875 349.53029657 345.01128387 352.12836456 C351.87083348 355.17468628 356.95514338 359.18264702 360.12847137 366.08930206 C361.07504036 369.10466099 361.43459758 372.05614584 361.82378387 375.19086456 C362.43616752 380.50219619 362.43616752 380.50219619 365.38628387 384.75336456 C371.07247744 388.73370006 377.13466375 388.11016546 383.88628387 387.50336456 C386.20880555 386.86688403 387.21514776 386.3191221 388.85894012 384.58539581 C390.64073203 380.97438788 391.19177594 377.04012153 391.8503952 373.09931183 C393.12781197 365.47323684 395.88360931 360.55106818 401.88628387 355.50336456 C408.67184797 351.48078465 414.96925115 349.57549315 422.88628387 350.50336456 C425.74641618 351.42197648 428.5110459 352.5032715 431.30815887 353.59711456 C434.71230431 354.79372326 437.32090282 355.07382553 440.88628387 354.50336456 C446.56002774 351.39631435 449.68749182 345.47203639 451.51519012 339.42133331 C451.80698684 337.0730645 451.73348878 335.72453389 450.88628387 333.50336456 C448.19045131 330.43706874 445.10357075 328.0014932 441.88628387 325.50336456 C436.02021713 320.27491376 433.51128275 314.6642547 432.89019012 306.89398956 C432.87767821 299.23670031 434.80967679 292.32516168 439.88628387 286.50336456 C442.43984711 284.26701415 445.05201005 282.19094661 447.77690887 280.16742706 C450.72393491 277.84255097 450.8371296 276.84130023 451.38628387 273.06586456 C451.34183575 267.00980726 447.63241639 262.02613431 443.88628387 257.50336456 C441.02556215 255.62377668 440.09447167 255.49158035 436.57378387 255.69086456 C432.89389482 256.3339644 432.89389482 256.3339644 429.88628387 258.06586456 C423.29688057 261.05563897 414.70673277 260.62849676 407.90190887 258.62445831 C400.90679016 255.4130629 396.04740332 250.75089113 393.07378387 243.62836456 C392.08390601 240.69286468 391.68672985 237.96131675 391.44878387 234.87836456 C391.0733564 230.35759208 389.7629946 227.99028665 386.88628387 224.50336456 C383.77141011 222.94592768 380.49052579 223.23650226 377.07378387 223.19086456 C376.00547333 223.1473587 376.00547333 223.1473587 374.91558075 223.10297394 C369.9286761 223.04300191 367.25508247 223.78298357 363.88628387 227.50336456 Z M18.01128387 296.69086456 C16.53222981 299.073785 16.0203708 300.68753904 15.88628387 303.50336456 C17.63741913 307.21597684 17.63741913 307.21597684 20.88628387 309.50336456 C24.46804607 309.89268654 26.24910108 309.93933174 29.26128387 307.87836456 C31.37334893 304.79150025 31.49823532 303.17507326 30.88628387 299.50336456 C29.44967076 296.98329612 29.44967076 296.98329612 26.88628387 295.50336456 C22.21989717 294.92464358 22.21989717 294.92464358 18.01128387 296.69086456 Z M50.01128387 296.75336456 C48.66437845 298.84855079 48.02970874 299.99342939 47.88628387 302.50336456 C49.48143172 306.78947704 49.48143172 306.78947704 52.88628387 309.50336456 C56.46804607 309.89268654 58.24910108 309.93933174 61.26128387 307.87836456 C63.37334893 304.79150025 63.49823532 303.17507326 62.88628387 299.50336456 C61.44967076 296.98329612 61.44967076 296.98329612 58.88628387 295.50336456 C54.19729369 294.9092436 54.19729369 294.9092436 50.01128387 296.75336456 Z M82.01128387 296.69086456 C80.53222981 299.073785 80.0203708 300.68753904 79.88628387 303.50336456 C81.63741913 307.21597684 81.63741913 307.21597684 84.88628387 309.50336456 C88.46804607 309.89268654 90.24910108 309.93933174 93.26128387 307.87836456 C95.37334893 304.79150025 95.49823532 303.17507326 94.88628387 299.50336456 C93.44967076 296.98329612 93.44967076 296.98329612 90.88628387 295.50336456 C86.21989717 294.92464358 86.21989717 294.92464358 82.01128387 296.69086456 Z M159.76236725 336.09502411 C158.4056026 338.20167059 157.64213681 340.12070562 156.88628387 342.50336456 C156.26074503 343.70029441 155.61319733 344.88604159 154.9417038 346.05780792 C154.33946991 347.22449005 153.73723602 348.39117218 153.11675262 349.59320831 C152.79088669 350.22320236 152.46502075 350.85319641 152.12928009 351.50228119 C151.45135309 352.81470748 150.77506481 354.1279815 150.1003952 355.44208527 C149.06253709 357.46276169 148.01873913 359.48028878 146.9741745 361.49750519 C143.60418187 366.82190305 143.60418187 366.82190305 141.88628387 372.50336456 C182.14628387 372.50336456 222.40628387 372.50336456 263.88628387 372.50336456 C262.32960638 367.83333209 260.7257751 363.99992563 258.48003387 359.67914581 C258.15466644 359.05106522 257.82929901 358.42298462 257.49407196 357.77587128 C256.81029405 356.45797524 256.12443001 355.14115966 255.43657684 353.82538605 C254.38509382 351.81358764 253.34024796 349.79845097 252.29644012 347.78266144 C248.83097343 341.00466822 248.83097343 341.00466822 244.88628387 334.50336456 C242.22348375 334.1745878 239.78840989 334.04208641 237.11943817 334.03583527 C236.31763123 334.02254684 235.51582428 334.00925842 234.68972015 333.99556732 C232.02988147 333.95676653 229.37058917 333.94126151 226.71050262 333.92914581 C224.86445741 333.91443245 223.0184135 333.89955293 221.17237091 333.88451385 C217.29775745 333.85748858 213.42333642 333.84396623 209.54863739 333.83759308 C204.58450875 333.82672821 199.62241535 333.76505233 194.658885 333.69087696 C190.84382002 333.64249059 187.02924525 333.63006582 183.21389961 333.62753105 C181.38418685 333.62029749 179.55447664 333.59981415 177.72506523 333.56582832 C168.2584716 332.97189012 168.2584716 332.97189012 159.76236725 336.09502411 Z " fill="#000000" transform="translate(28.11371612548828,53.49663543701172)"/>
<path d="M0 0 C7.27348034 5.3080362 12.80384315 11.96972702 16.1875 20.3125 C16.579375 21.240625 16.97125 22.16875 17.375 23.125 C20.58147348 35.70424212 19.0533439 47.15801463 12.87890625 58.5546875 C6.40266132 69.11410764 -2.82836747 75.306142 -14.8125 78.3125 C-17.95202529 78.71935349 -21.02440469 78.79110017 -24.1875 78.75 C-25.01749512 78.74170166 -25.84749023 78.73340332 -26.70263672 78.72485352 C-39.76885239 78.3663682 -48.62458541 72.89038129 -57.5625 63.625 C-65.5350515 54.13210146 -67.62171593 42.33303477 -66.8125 30.3125 C-65.03396064 19.87933601 -60.2883402 9.44939908 -51.84765625 2.75390625 C-36.03293652 -8.39144104 -16.89614335 -10.42219151 0 0 Z M-44.8125 20.3125 C-48.80863589 26.71360521 -50.65841571 32.76878597 -49.8125 40.3125 C-47.42355713 48.66761109 -43.72417111 54.7846876 -36.1484375 59.234375 C-29.71926159 62.20168696 -22.7855101 63.12742964 -15.9375 61.1953125 C-9.03402845 58.32732616 -3.29189589 52.90743339 0.1875 46.3125 C2.83908436 38.38121228 2.66501278 31.48258744 -0.9375 23.96484375 C-4.81970325 17.35848083 -10.5004615 12.9680684 -17.85546875 10.67578125 C-28.3303791 8.73133681 -37.77693572 12.29012931 -44.8125 20.3125 Z " fill="#000000" transform="translate(428.8125,322.6875)"/>
</svg>
